<?xml version="1.0" encoding="utf-8"?>
<svg xmlns="http://www.w3.org/2000/svg" xmlns:xlink="http://www.w3.org/1999/xlink" style="margin: auto; background: none; display: block; shape-rendering: auto;" width="237px" height="237px" viewBox="0 0 100 100" preserveAspectRatio="xMidYMid">
<g transform="translate(50 50)">
<g>
<animateTransform attributeName="transform" type="rotate" values="0;45" keyTimes="0;1" dur="0.3076923076923077s" repeatCount="indefinite"></animateTransform><path d="M23.31844763272204 -11.5 L30.31844763272204 -11.5 L30.31844763272204 11.5 L23.31844763272204 11.5 A26 26 0 0 1 24.620360431486443 8.356904464195852 L24.620360431486443 8.356904464195852 L29.570107899792276 13.306651932501683 L13.306651932501687 29.570107899792276 L8.356904464195855 24.620360431486443 A26 26 0 0 1 11.5 23.318447632722037 L11.5 23.318447632722037 L11.5 30.318447632722037 L-11.500000000000002 30.318447632722037 L-11.500000000000002 23.318447632722037 A26 26 0 0 1 -8.356904464195852 24.620360431486446 L-8.356904464195852 24.620360431486446 L-13.306651932501683 29.570107899792276 L-29.570107899792276 13.306651932501683 L-24.620360431486446 8.356904464195852 A26 26 0 0 1 -23.318447632722034 11.500000000000007 L-23.318447632722034 11.500000000000007 L-30.318447632722034 11.500000000000007 L-30.318447632722037 -11.500000000000002 L-23.318447632722037 -11.500000000000002 A26 26 0 0 1 -24.620360431486446 -8.356904464195845 L-24.620360431486446 -8.356904464195845 L-29.57010789979228 -13.306651932501676 L-13.306651932501698 -29.570107899792276 L-8.356904464195864 -24.620360431486443 A26 26 0 0 1 -11.499999999999998 -23.31844763272204 L-11.499999999999998 -23.31844763272204 L-11.5 -30.31844763272204 L11.499999999999988 -30.31844763272204 L11.49999999999999 -23.31844763272204 A26 26 0 0 1 8.356904464195853 -24.620360431486443 L8.356904464195853 -24.620360431486443 L13.306651932501685 -29.570107899792276 L29.570107899792276 -13.3066519325017 L24.620360431486443 -8.356904464195866 A26 26 0 0 1 23.31844763272204 -11.5 M0 -28A28 28 0 1 0 0 28 A28 28 0 1 0 0 -28" fill="#0a36fa"></path></g></g>
<!-- [ldio] generated by https://loading.io/ --></svg>